<svg xmlns="http://www.w3.org/2000/svg" width="46.224" height="41.22" viewBox="0 0 46.224 41.22">
  <metadata><?xpacket begin="﻿" id="W5M0MpCehiHzreSzNTczkc9d"?>
<x:xmpmeta xmlns:x="adobe:ns:meta/" x:xmptk="Adobe XMP Core 5.6-c142 79.160924, 2017/07/13-01:06:39        ">
   <rdf:RDF xmlns:rdf="http://www.w3.org/1999/02/22-rdf-syntax-ns#">
      <rdf:Description rdf:about=""/>
   </rdf:RDF>
</x:xmpmeta>
                                                                                                    
                                                                                                    
                                                                                                    
                                                                                                    
                                                                                                    
                                                                                                    
                                                                                                    
                                                                                                    
                                                                                                    
                                                                                                    
                                                                                                    
                                                                                                    
                                                                                                    
                                                                                                    
                                                                                                    
                                                                                                    
                                                                                                    
                                                                                                    
                                                                                                    
                                                                                                    
                           
<?xpacket end="w"?></metadata>
<defs>
    <style>
      .cls-1 {
        fill: #68b0c9;
        fill-rule: evenodd;
      }
    </style>
  </defs>
  <path id="иконка" class="cls-1" d="M972,3144h40s2.45-.65,3-2c0.55-1.37-.79-3.45-0.79-3.45L996,3106s-2.112-3.02-4-3-4,3-4,3l-18,33s-1.514,1.78-1,3A3.037,3.037,0,0,0,972,3144Zm20-11a3,3,0,1,1-3,3A3,3,0,0,1,992,3133Zm0-2a2.246,2.246,0,0,0,2-2c0.049-.89,1-13,1-13s-0.682-2.94-3-3-3,3-3,3l1,13S990.913,3131.04,992,3131Z" transform="translate(-968.906 -3103)"/>
</svg>
