<svg xmlns="http://www.w3.org/2000/svg" width="143" height="53" viewBox="0 0 143 53">
  <metadata><?xpacket begin="﻿" id="W5M0MpCehiHzreSzNTczkc9d"?>
<x:xmpmeta xmlns:x="adobe:ns:meta/" x:xmptk="Adobe XMP Core 5.6-c142 79.160924, 2017/07/13-01:06:39        ">
   <rdf:RDF xmlns:rdf="http://www.w3.org/1999/02/22-rdf-syntax-ns#">
      <rdf:Description rdf:about=""/>
   </rdf:RDF>
</x:xmpmeta>
                                                                                                    
                                                                                                    
                                                                                                    
                                                                                                    
                                                                                                    
                                                                                                    
                                                                                                    
                                                                                                    
                                                                                                    
                                                                                                    
                                                                                                    
                                                                                                    
                                                                                                    
                                                                                                    
                                                                                                    
                                                                                                    
                                                                                                    
                                                                                                    
                                                                                                    
                                                                                                    
                           
<?xpacket end="w"?></metadata>
<defs>
    <style>
      .cls-1 {
        fill: #68b0c9;
        fill-rule: evenodd;
      }
    </style>
  </defs>
  <path id="_4" data-name="4" class="cls-1" d="M1115.64,3845.61a4.087,4.087,0,0,1,5.75-.75,4.131,4.131,0,0,1,.76,5.77,4.075,4.075,0,0,1-5.74.76A4.144,4.144,0,0,1,1115.64,3845.61Zm1.45,1.12a2.267,2.267,0,0,1,3.19-.42,2.3,2.3,0,0,1,.43,3.21,2.269,2.269,0,0,1-3.19.42A2.3,2.3,0,0,1,1117.09,3846.73Zm-136.257,25.05a4.078,4.078,0,0,1,5.743-.75,4.129,4.129,0,0,1,.765,5.77,4.078,4.078,0,0,1-5.743.75A4.13,4.13,0,0,1,980.833,3871.78Zm1.447,1.12a2.259,2.259,0,0,1,3.19-.42,2.288,2.288,0,0,1,.425,3.2,2.259,2.259,0,0,1-3.19.42A2.287,2.287,0,0,1,982.28,3872.9Zm3.508,4.43,1.66-2.18,6.508,5.02-1.66,2.18Zm9.748,7.43,1.158-2.48,7.416,3.51-1.15,2.48Zm10.334,4.52,1.16-2.48,7.42,3.51-1.16,2.48Zm10.89,4.74,0.59-2.68,8,1.82-0.6,2.67Zm11.92,1.65,0.23-2.74,8.16,0.7-0.22,2.73Zm13.24,1.33-0.07-2.74,8.19-.19,0.07,2.75Zm12.97-1.18-0.4-2.71,8.1-1.21,0.41,2.72Zm12.45-2.65-1.04-2.54,7.58-3.1,1.04,2.54Zm11.49-4.84-1.44-2.33,6.95-4.34,1.45,2.33Zm13.8-7.83-1.82-2.06,6.11-5.46,1.82,2.05Zm10.08-9.59-1.99-1.88,5.61-5.99,1.99,1.88Zm9.01-10.49-2.35-2.08,6.92-8.17,2.35,2.07Z" transform="translate(-980 -3844)"/>
</svg>
