<svg xmlns="http://www.w3.org/2000/svg" width="148.122" height="76.81" viewBox="0 0 148.122 76.81">
  <metadata><?xpacket begin="﻿" id="W5M0MpCehiHzreSzNTczkc9d"?>
<x:xmpmeta xmlns:x="adobe:ns:meta/" x:xmptk="Adobe XMP Core 5.6-c142 79.160924, 2017/07/13-01:06:39        ">
   <rdf:RDF xmlns:rdf="http://www.w3.org/1999/02/22-rdf-syntax-ns#">
      <rdf:Description rdf:about=""/>
   </rdf:RDF>
</x:xmpmeta>
                                                                                                    
                                                                                                    
                                                                                                    
                                                                                                    
                                                                                                    
                                                                                                    
                                                                                                    
                                                                                                    
                                                                                                    
                                                                                                    
                                                                                                    
                                                                                                    
                                                                                                    
                                                                                                    
                                                                                                    
                                                                                                    
                                                                                                    
                                                                                                    
                                                                                                    
                                                                                                    
                           
<?xpacket end="w"?></metadata>
<defs>
    <style>
      .cls-1 {
        fill: #68b0c9;
        fill-rule: evenodd;
      }
    </style>
  </defs>
  <path id="_3" data-name="3" class="cls-1" d="M995.486,3667.65a4.5,4.5,0,1,1-2.1-6.01A4.5,4.5,0,0,1,995.486,3667.65Zm-1.8-.87a2.5,2.5,0,1,1-1.167-3.33A2.495,2.495,0,0,1,993.684,3666.78Zm140.936-57.53a4.5,4.5,0,1,1-2.1-6A4.5,4.5,0,0,1,1134.62,3609.25Zm-1.8-.86a2.5,2.5,0,1,1-1.17-3.34A2.5,2.5,0,0,1,1132.82,3608.39Zm-4.75-3.96-1.31,2.7-8.1-3.9,1.3-2.71Zm-12.13-5.76-0.7,2.92-8.75-2.09,0.7-2.91Zm-12.11-2.5-0.7,2.91-8.75-2.08,0.69-2.92Zm-12.75-2.62-0.05,3-9-.14,0.05-3Zm-13.19.92,0.37,2.98-8.94,1.1-0.36-2.98Zm-14.53,1.55,0.69,2.92-8.77,2.05-0.68-2.92Zm-13.68,4.19,1.04,2.81-8.45,3.12-1.04-2.81Zm-12.79,5.65,1.67,2.48-7.46,5.03-1.68-2.49Zm-11.29,7.77,2.07,2.17-6.51,6.21-2.07-2.17Zm-13.09,11.49,2.41,1.79-5.37,7.23-2.41-1.79Zm-8.72,12.53,2.56,1.57-4.71,7.68-2.553-1.57Zm-7.363,13.27,2.985,1.69-5.629,10.32-2.985-1.69Z" transform="translate(-986.938 -3593.41)"/>
</svg>
