<svg xmlns="http://www.w3.org/2000/svg" width="122" height="109" viewBox="0 0 122 109">
  <metadata><?xpacket begin="﻿" id="W5M0MpCehiHzreSzNTczkc9d"?>
<x:xmpmeta xmlns:x="adobe:ns:meta/" x:xmptk="Adobe XMP Core 5.6-c142 79.160924, 2017/07/13-01:06:39        ">
   <rdf:RDF xmlns:rdf="http://www.w3.org/1999/02/22-rdf-syntax-ns#">
      <rdf:Description rdf:about=""/>
   </rdf:RDF>
</x:xmpmeta>
                                                                                                    
                                                                                                    
                                                                                                    
                                                                                                    
                                                                                                    
                                                                                                    
                                                                                                    
                                                                                                    
                                                                                                    
                                                                                                    
                                                                                                    
                                                                                                    
                                                                                                    
                                                                                                    
                                                                                                    
                                                                                                    
                                                                                                    
                                                                                                    
                                                                                                    
                                                                                                    
                           
<?xpacket end="w"?></metadata>
<defs>
    <style>
      .cls-1 {
        fill: #68b0c9;
        fill-rule: evenodd;
      }
    </style>
  </defs>
  <path id="_1" data-name="1" class="cls-1" d="M920.5,3738a4.5,4.5,0,1,1-4.5,4.5A4.5,4.5,0,0,1,920.5,3738Zm0,2a2.5,2.5,0,1,1-2.5,2.5A2.5,2.5,0,0,1,920.5,3740Zm-113-102a4.5,4.5,0,1,1-4.5,4.5A4.5,4.5,0,0,1,807.5,3638Zm0,2a2.5,2.5,0,1,1-2.5,2.5A2.5,2.5,0,0,1,807.5,3640Zm-1.5,6h3v9h-3v-9Zm0.074,13.42,2.931-.64,1.921,8.8-2.931.64Zm3,12,2.931-.64,1.921,8.8-2.931.64Zm3.174,12.63,2.723-1.26,3.781,8.16-2.723,1.26Zm6.556,11.48,2.523-1.63,4.869,7.57-2.524,1.63Zm7.7,12.41,2.335-1.88,5.649,7-2.336,1.88Zm9.714,10.51,2.084-2.16,6.472,6.26-2.084,2.16Zm10.636,9.07,1.514-2.59,7.77,4.55-1.514,2.59Zm11.9,6.8,1.058-2.81,8.422,3.17-1.059,2.81Zm16.038,6.81,0.565-2.95,8.839,1.69-0.565,2.95Zm15.074,2.41,0.3-2.99,8.954,0.91-0.3,2.98Zm15.147,0.87,0.227-3.42,11.735,0.6-0.227,3.42Z" transform="translate(-803 -3638)"/>
</svg>
