<svg xmlns="http://www.w3.org/2000/svg" width="143.219" height="52.97" viewBox="0 0 143.219 52.97">
  <metadata><?xpacket begin="﻿" id="W5M0MpCehiHzreSzNTczkc9d"?>
<x:xmpmeta xmlns:x="adobe:ns:meta/" x:xmptk="Adobe XMP Core 5.6-c142 79.160924, 2017/07/13-01:06:39        ">
   <rdf:RDF xmlns:rdf="http://www.w3.org/1999/02/22-rdf-syntax-ns#">
      <rdf:Description rdf:about=""/>
   </rdf:RDF>
</x:xmpmeta>
                                                                                                    
                                                                                                    
                                                                                                    
                                                                                                    
                                                                                                    
                                                                                                    
                                                                                                    
                                                                                                    
                                                                                                    
                                                                                                    
                                                                                                    
                                                                                                    
                                                                                                    
                                                                                                    
                                                                                                    
                                                                                                    
                                                                                                    
                                                                                                    
                                                                                                    
                                                                                                    
                           
<?xpacket end="w"?></metadata>
<defs>
    <style>
      .cls-1 {
        fill: #68b0c9;
        fill-rule: evenodd;
      }
    </style>
  </defs>
  <path id="_2" data-name="2" class="cls-1" d="M907.946,3855.82a4.111,4.111,0,1,0,.766-5.76A4.09,4.09,0,0,0,907.946,3855.82Zm1.448-1.11a2.286,2.286,0,1,0,.426-3.21A2.3,2.3,0,0,0,909.394,3854.71Zm-136.466-25.04a4.11,4.11,0,1,0,.767-5.77A4.1,4.1,0,0,0,772.928,3829.67Zm1.449-1.11a2.273,2.273,0,0,0,3.2.42A2.283,2.283,0,1,0,774.377,3828.56Zm3.514-4.43,1.662,2.17,6.518-5.02-1.662-2.17Zm9.763-7.43,1.16,2.48,7.431-3.51-1.16-2.48Zm10.352-4.52,1.16,2.48,7.432-3.5-1.16-2.49Zm10.9-4.73,0.6,2.67,8.01-1.81-0.6-2.67Zm11.945-1.65,0.223,2.73,8.179-.69-0.223-2.73Zm13.256-1.34-0.069,2.75,8.2,0.18,0.07-2.74Zm13,1.18-0.408,2.72,8.114,1.2,0.408-2.71Zm12.462,2.65-1.037,2.55,7.593,3.09,1.037-2.54Zm11.512,4.84-1.447,2.34,6.965,4.33,1.446-2.33Zm13.816,7.83-1.821,2.05,6.124,5.46,1.821-2.05Zm10.1,9.58L893,3832.42l5.616,5.99,1.994-1.89Zm9.024,10.49-2.353,2.07,6.932,8.18,2.353-2.08Z" transform="translate(-772.094 -3804.47)"/>
</svg>
