<svg xmlns="http://www.w3.org/2000/svg" width="80.62" height="40.62" viewBox="0 0 80.62 40.62">
  <metadata><?xpacket begin="﻿" id="W5M0MpCehiHzreSzNTczkc9d"?>
<x:xmpmeta xmlns:x="adobe:ns:meta/" x:xmptk="Adobe XMP Core 5.6-c142 79.160924, 2017/07/13-01:06:39        ">
   <rdf:RDF xmlns:rdf="http://www.w3.org/1999/02/22-rdf-syntax-ns#">
      <rdf:Description rdf:about=""/>
   </rdf:RDF>
</x:xmpmeta>
                                                                                                    
                                                                                                    
                                                                                                    
                                                                                                    
                                                                                                    
                                                                                                    
                                                                                                    
                                                                                                    
                                                                                                    
                                                                                                    
                                                                                                    
                                                                                                    
                                                                                                    
                                                                                                    
                                                                                                    
                                                                                                    
                                                                                                    
                                                                                                    
                                                                                                    
                                                                                                    
                           
<?xpacket end="w"?></metadata>
<defs>
    <style>
      .cls-1 {
        fill: #5ea5bd;
        fill-rule: evenodd;
      }
    </style>
  </defs>
  <path id="_1" data-name="1" class="cls-1" d="M1108.24,4587.3a3.5,3.5,0,1,1-3.57,3.43A3.5,3.5,0,0,1,1108.24,4587.3Zm-0.04,2a1.5,1.5,0,1,1-1.53,1.47A1.492,1.492,0,0,1,1108.2,4589.3Zm73.7-35.6a3.5,3.5,0,1,1-3.57,3.44A3.511,3.511,0,0,1,1181.9,4553.7Zm-0.04,2a1.5,1.5,0,1,1-1.53,1.47A1.5,1.5,0,0,1,1181.86,4555.7Zm-72.22,32.2,7.17-2.74,0.71,1.87-7.16,2.73Zm9.1-4.83,7.16-2.74,0.72,1.87-7.17,2.74Zm10.09-4.81,7.17-2.73,0.71,1.87-7.17,2.73Zm10.1-4.81,7.16-2.73,0.71,1.87-7.16,2.73Zm11.09-4.78,7.17-2.74,0.71,1.87-7.17,2.73Zm11.09-4.79,7.17-2.74,0.71,1.87-7.16,2.74Zm11.1-4.79,7.16-2.74,0.72,1.87-7.17,2.74Z" transform="translate(-1104.69 -4553.69)"/>
</svg>
