<svg xmlns="http://www.w3.org/2000/svg" width="86.56" height="21.88" viewBox="0 0 86.56 21.88">
  <metadata><?xpacket begin="﻿" id="W5M0MpCehiHzreSzNTczkc9d"?>
<x:xmpmeta xmlns:x="adobe:ns:meta/" x:xmptk="Adobe XMP Core 5.6-c142 79.160924, 2017/07/13-01:06:39        ">
   <rdf:RDF xmlns:rdf="http://www.w3.org/1999/02/22-rdf-syntax-ns#">
      <rdf:Description rdf:about=""/>
   </rdf:RDF>
</x:xmpmeta>
                                                                                                    
                                                                                                    
                                                                                                    
                                                                                                    
                                                                                                    
                                                                                                    
                                                                                                    
                                                                                                    
                                                                                                    
                                                                                                    
                                                                                                    
                                                                                                    
                                                                                                    
                                                                                                    
                                                                                                    
                                                                                                    
                                                                                                    
                                                                                                    
                                                                                                    
                                                                                                    
                           
<?xpacket end="w"?></metadata>
<defs>
    <style>
      .cls-1 {
        fill: #5ea5bd;
        fill-rule: evenodd;
      }
    </style>
  </defs>
  <path id="_3" data-name="3" class="cls-1" d="M1110.28,4712.75a3.5,3.5,0,1,1-4.9.75A3.489,3.489,0,0,1,1110.28,4712.75Zm-1.18,1.61a1.5,1.5,0,1,1-2.1.32A1.51,1.51,0,0,1,1109.1,4714.36Zm80.76,13.24a3.5,3.5,0,1,1-4.89.76A3.513,3.513,0,0,1,1189.86,4727.6Zm-1.18,1.62a1.5,1.5,0,1,1-2.1.32A1.51,1.51,0,0,1,1188.68,4729.22Zm-77.6-15.18,7.44,1.88-0.49,1.94-7.44-1.88Zm10.22,1.28,7.43,1.88-0.49,1.94-7.43-1.88Zm11.02,1.87,7.44,1.88-0.49,1.94-7.44-1.88Zm11.02,1.87,7.44,1.88-0.49,1.94-7.44-1.88Zm11.83,2.46,7.44,1.88-0.49,1.94-7.44-1.88Zm11.83,2.46,7.44,1.88-0.49,1.94-7.44-1.88Zm11.83,2.46,7.44,1.88-0.49,1.94-7.44-1.88Z" transform="translate(-1104.72 -4712.06)"/>
</svg>
