<svg xmlns="http://www.w3.org/2000/svg" width="83.44" height="33.62" viewBox="0 0 83.44 33.62">
  <metadata><?xpacket begin="﻿" id="W5M0MpCehiHzreSzNTczkc9d"?>
<x:xmpmeta xmlns:x="adobe:ns:meta/" x:xmptk="Adobe XMP Core 5.6-c142 79.160924, 2017/07/13-01:06:39        ">
   <rdf:RDF xmlns:rdf="http://www.w3.org/1999/02/22-rdf-syntax-ns#">
      <rdf:Description rdf:about=""/>
   </rdf:RDF>
</x:xmpmeta>
                                                                                                    
                                                                                                    
                                                                                                    
                                                                                                    
                                                                                                    
                                                                                                    
                                                                                                    
                                                                                                    
                                                                                                    
                                                                                                    
                                                                                                    
                                                                                                    
                                                                                                    
                                                                                                    
                                                                                                    
                                                                                                    
                                                                                                    
                                                                                                    
                                                                                                    
                                                                                                    
                           
<?xpacket end="w"?></metadata>
<defs>
    <style>
      .cls-1 {
        fill: #5ea5bd;
        fill-rule: evenodd;
      }
    </style>
  </defs>
  <path id="_4" data-name="4" class="cls-1" d="M1111.24,4758.21a3.5,3.5,0,1,1-4.95.02A3.495,3.495,0,0,1,1111.24,4758.21Zm-1.41,1.42a1.5,1.5,0,1,1-2.12.01A1.491,1.491,0,0,1,1109.83,4759.63Zm77.87,25.19a3.5,3.5,0,1,1-4.95.02A3.5,3.5,0,0,1,1187.7,4784.82Zm-1.41,1.42a1.5,1.5,0,1,1-2.13.01A1.5,1.5,0,0,1,1186.29,4786.24Zm-74.45-26.63,7.07,2.98-0.78,1.84-7.07-2.97Zm9.91,2.8,7.07,2.97-0.78,1.85-7.07-2.98Zm10.62,3.5,7.07,2.97-0.78,1.85-7.07-2.98Zm10.62,3.5,7.07,2.97-0.78,1.85-7.07-2.98Zm11.32,4.2,7.07,2.98-0.77,1.84-7.07-2.97Zm11.33,4.21,7.07,2.97-0.77,1.84-7.07-2.97Zm11.33,4.2,7.07,2.98-0.78,1.84-7.06-2.98Z" transform="translate(-1105.28 -4757.19)"/>
</svg>
