<svg xmlns="http://www.w3.org/2000/svg" width="85.12" height="28.18" viewBox="0 0 85.12 28.18">
  <metadata><?xpacket begin="﻿" id="W5M0MpCehiHzreSzNTczkc9d"?>
<x:xmpmeta xmlns:x="adobe:ns:meta/" x:xmptk="Adobe XMP Core 5.6-c142 79.160924, 2017/07/13-01:06:39        ">
   <rdf:RDF xmlns:rdf="http://www.w3.org/1999/02/22-rdf-syntax-ns#">
      <rdf:Description rdf:about=""/>
   </rdf:RDF>
</x:xmpmeta>
                                                                                                    
                                                                                                    
                                                                                                    
                                                                                                    
                                                                                                    
                                                                                                    
                                                                                                    
                                                                                                    
                                                                                                    
                                                                                                    
                                                                                                    
                                                                                                    
                                                                                                    
                                                                                                    
                                                                                                    
                                                                                                    
                                                                                                    
                                                                                                    
                                                                                                    
                                                                                                    
                           
<?xpacket end="w"?></metadata>
<defs>
    <style>
      .cls-1 {
        fill: #5ea5bd;
        fill-rule: evenodd;
      }
    </style>
  </defs>
  <path id="_2" data-name="2" class="cls-1" d="M1109.57,4672.16a3.5,3.5,0,1,1-4.08,2.8A3.5,3.5,0,0,1,1109.57,4672.16Zm-0.36,1.96a1.5,1.5,0,1,1-1.75,1.21A1.507,1.507,0,0,1,1109.21,4674.12Zm78.49-23.16a3.5,3.5,0,1,1-4.08,2.81A3.5,3.5,0,0,1,1187.7,4650.96Zm-0.36,1.97a1.5,1.5,0,1,1-1.75,1.2A1.5,1.5,0,0,1,1187.34,4652.93Zm-76.48,20.04,7.51-1.53,0.4,1.96-7.51,1.53Zm9.75-3.28,7.52-1.54,0.4,1.96-7.52,1.54Zm10.74-3.11,7.52-1.53,0.4,1.95-7.52,1.54Zm10.74-3.1,7.52-1.54,0.4,1.96-7.51,1.53Zm11.73-2.93,7.51-1.54,0.4,1.96-7.51,1.54Zm11.72-2.92,7.52-1.54,0.4,1.96-7.52,1.54Zm11.73-2.93,7.51-1.53,0.4,1.96-7.51,1.53Z" transform="translate(-1105.44 -4650.91)"/>
</svg>
