<svg xmlns="http://www.w3.org/2000/svg" width="86.969" height="21.85" viewBox="0 0 86.969 21.85">
  <metadata><?xpacket begin="﻿" id="W5M0MpCehiHzreSzNTczkc9d"?>
<x:xmpmeta xmlns:x="adobe:ns:meta/" x:xmptk="Adobe XMP Core 5.6-c142 79.160924, 2017/07/13-01:06:39        ">
   <rdf:RDF xmlns:rdf="http://www.w3.org/1999/02/22-rdf-syntax-ns#">
      <rdf:Description rdf:about=""/>
   </rdf:RDF>
</x:xmpmeta>
                                                                                                    
                                                                                                    
                                                                                                    
                                                                                                    
                                                                                                    
                                                                                                    
                                                                                                    
                                                                                                    
                                                                                                    
                                                                                                    
                                                                                                    
                                                                                                    
                                                                                                    
                                                                                                    
                                                                                                    
                                                                                                    
                                                                                                    
                                                                                                    
                                                                                                    
                                                                                                    
                           
<?xpacket end="w"?></metadata>
<defs>
    <style>
      .cls-1 {
        fill: #939393;
        fill-rule: evenodd;
      }
    </style>
  </defs>
  <path id="_3_копия" data-name="3 копия" class="cls-1" d="M806.385,4712.97a3.488,3.488,0,0,0-.761,4.89,3.528,3.528,0,0,0,4.914.76,3.488,3.488,0,0,0,.761-4.89A3.528,3.528,0,0,0,806.385,4712.97Zm1.187,1.62a1.488,1.488,0,0,0-.327,2.09A1.5,1.5,0,1,0,807.572,4714.59Zm-81.142,13.24a3.477,3.477,0,0,0-.761,4.88,3.529,3.529,0,0,0,4.914.76A3.5,3.5,0,1,0,726.43,4727.83Zm1.187,1.61a1.488,1.488,0,0,0-.326,2.09A1.5,1.5,0,1,0,727.617,4729.44Zm77.958-15.17-7.47,1.88,0.493,1.94,7.47-1.88Zm-10.264,1.28-7.47,1.88,0.493,1.94,7.47-1.88Zm-11.075,1.87-7.47,1.88,0.493,1.94,7.471-1.88Zm-11.074,1.87-7.47,1.88,0.493,1.94,7.47-1.89Zm-11.886,2.45-7.47,1.89,0.493,1.93,7.471-1.88Zm-11.885,2.46-7.47,1.89,0.493,1.93,7.47-1.88Zm-11.885,2.46-7.471,1.88,0.493,1.94L738,4728.6Z" transform="translate(-725 -4712.31)"/>
</svg>
