<svg xmlns="http://www.w3.org/2000/svg" width="83.843" height="33.59" viewBox="0 0 83.843 33.59">
  <metadata><?xpacket begin="﻿" id="W5M0MpCehiHzreSzNTczkc9d"?>
<x:xmpmeta xmlns:x="adobe:ns:meta/" x:xmptk="Adobe XMP Core 5.6-c142 79.160924, 2017/07/13-01:06:39        ">
   <rdf:RDF xmlns:rdf="http://www.w3.org/1999/02/22-rdf-syntax-ns#">
      <rdf:Description rdf:about=""/>
   </rdf:RDF>
</x:xmpmeta>
                                                                                                    
                                                                                                    
                                                                                                    
                                                                                                    
                                                                                                    
                                                                                                    
                                                                                                    
                                                                                                    
                                                                                                    
                                                                                                    
                                                                                                    
                                                                                                    
                                                                                                    
                                                                                                    
                                                                                                    
                                                                                                    
                                                                                                    
                                                                                                    
                                                                                                    
                                                                                                    
                           
<?xpacket end="w"?></metadata>
<defs>
    <style>
      .cls-1 {
        fill: #939393;
        fill-rule: evenodd;
      }
    </style>
  </defs>
  <path id="_4_копия" data-name="4 копия" class="cls-1" d="M805.42,4758.42a3.476,3.476,0,0,0-.017,4.94,3.532,3.532,0,0,0,4.973.02A3.506,3.506,0,1,0,805.42,4758.42Zm1.415,1.41a1.5,1.5,0,1,0,2.132.01A1.514,1.514,0,0,0,806.835,4759.83ZM728.6,4785.01a3.489,3.489,0,0,0-.017,4.95,3.532,3.532,0,0,0,4.973.02,3.488,3.488,0,0,0,.017-4.95A3.532,3.532,0,0,0,728.6,4785.01Zm1.416,1.42a1.494,1.494,0,0,0-.007,2.12,1.513,1.513,0,0,0,2.131.01,1.494,1.494,0,0,0,.008-2.12A1.514,1.514,0,0,0,730.018,4786.43Zm74.795-26.61-7.1,2.97,0.779,1.84,7.1-2.97Zm-9.955,2.79-7.1,2.97,0.779,1.85,7.1-2.98Zm-10.668,3.5-7.1,2.97,0.779,1.84,7.1-2.97Zm-10.669,3.5-7.1,2.97,0.78,1.84,7.1-2.97Zm-11.381,4.2-7.1,2.97,0.779,1.84,7.1-2.97Zm-11.381,4.2-7.1,2.97,0.779,1.85,7.1-2.98Zm-11.382,4.2-7.1,2.98,0.779,1.84,7.1-2.98Z" transform="translate(-727.563 -4757.41)"/>
</svg>
