<svg xmlns="http://www.w3.org/2000/svg" width="81.031" height="40.59" viewBox="0 0 81.031 40.59">
  <metadata><?xpacket begin="﻿" id="W5M0MpCehiHzreSzNTczkc9d"?>
<x:xmpmeta xmlns:x="adobe:ns:meta/" x:xmptk="Adobe XMP Core 5.6-c142 79.160924, 2017/07/13-01:06:39        ">
   <rdf:RDF xmlns:rdf="http://www.w3.org/1999/02/22-rdf-syntax-ns#">
      <rdf:Description rdf:about=""/>
   </rdf:RDF>
</x:xmpmeta>
                                                                                                    
                                                                                                    
                                                                                                    
                                                                                                    
                                                                                                    
                                                                                                    
                                                                                                    
                                                                                                    
                                                                                                    
                                                                                                    
                                                                                                    
                                                                                                    
                                                                                                    
                                                                                                    
                                                                                                    
                                                                                                    
                                                                                                    
                                                                                                    
                                                                                                    
                                                                                                    
                           
<?xpacket end="w"?></metadata>
<defs>
    <style>
      .cls-1 {
        fill: #939393;
        fill-rule: evenodd;
      }
    </style>
  </defs>
  <path id="_1_копия" data-name="1 копия" class="cls-1" d="M808.432,4587.59a3.5,3.5,0,1,0,3.583,3.43A3.514,3.514,0,0,0,808.432,4587.59Zm0.039,2a1.5,1.5,0,1,0,1.535,1.47A1.506,1.506,0,0,0,808.471,4589.59Zm-74.041-35.57a3.5,3.5,0,1,0,3.583,3.43A3.5,3.5,0,0,0,734.43,4554.02Zm0.038,1.99a1.5,1.5,0,1,0,1.536,1.47A1.506,1.506,0,0,0,734.468,4556.01Zm72.552,32.18-7.2-2.73-0.717,1.86,7.2,2.74Zm-9.136-4.82-7.2-2.74-0.717,1.87,7.2,2.73Zm-10.142-4.81-7.2-2.73-0.717,1.87,7.2,2.73Zm-10.141-4.8-7.2-2.74-0.716,1.87,7.2,2.73Zm-11.146-4.79-7.2-2.73-0.717,1.86,7.2,2.74Zm-11.146-4.79-7.2-2.73-0.717,1.87,7.2,2.73Zm-11.145-4.78-7.2-2.74-0.716,1.87,7.2,2.74Z" transform="translate(-730.969 -4554)"/>
</svg>
