<svg xmlns="http://www.w3.org/2000/svg" width="85.531" height="28.18" viewBox="0 0 85.531 28.18">
  <metadata><?xpacket begin="﻿" id="W5M0MpCehiHzreSzNTczkc9d"?>
<x:xmpmeta xmlns:x="adobe:ns:meta/" x:xmptk="Adobe XMP Core 5.6-c142 79.160924, 2017/07/13-01:06:39        ">
   <rdf:RDF xmlns:rdf="http://www.w3.org/1999/02/22-rdf-syntax-ns#">
      <rdf:Description rdf:about=""/>
   </rdf:RDF>
</x:xmpmeta>
                                                                                                    
                                                                                                    
                                                                                                    
                                                                                                    
                                                                                                    
                                                                                                    
                                                                                                    
                                                                                                    
                                                                                                    
                                                                                                    
                                                                                                    
                                                                                                    
                                                                                                    
                                                                                                    
                                                                                                    
                                                                                                    
                                                                                                    
                                                                                                    
                                                                                                    
                                                                                                    
                           
<?xpacket end="w"?></metadata>
<defs>
    <style>
      .cls-1 {
        fill: #939393;
        fill-rule: evenodd;
      }
    </style>
  </defs>
  <path id="_2_копия" data-name="2 копия" class="cls-1" d="M807.1,4672.41a3.5,3.5,0,1,0,4.1,2.8A3.5,3.5,0,0,0,807.1,4672.41Zm0.364,1.96a1.5,1.5,0,1,0,1.755,1.2A1.5,1.5,0,0,0,807.461,4674.37ZM728.6,4651.22a3.5,3.5,0,1,0,4.1,2.81A3.5,3.5,0,0,0,728.6,4651.22Zm0.364,1.97a1.5,1.5,0,1,0,1.755,1.2A1.5,1.5,0,0,0,728.962,4653.19Zm76.839,20.03-7.55-1.53-0.4,1.96,7.55,1.53Zm-9.8-3.28-7.55-1.54-0.4,1.96,7.55,1.54Zm-10.79-3.11-7.55-1.53-0.4,1.96,7.55,1.53Zm-10.791-3.1-7.55-1.54-0.4,1.96,7.55,1.54Zm-11.779-2.92-7.55-1.54-0.4,1.96,7.55,1.54Zm-11.779-2.93-7.55-1.53-0.4,1.96,7.55,1.53Zm-11.778-2.92-7.551-1.53-0.4,1.95,7.55,1.54Z" transform="translate(-725.719 -4651.16)"/>
</svg>
