<svg xmlns="http://www.w3.org/2000/svg" width="64.66" height="104.94" viewBox="0 0 64.66 104.94">
  <metadata><?xpacket begin="﻿" id="W5M0MpCehiHzreSzNTczkc9d"?>
<x:xmpmeta xmlns:x="adobe:ns:meta/" x:xmptk="Adobe XMP Core 5.6-c142 79.160924, 2017/07/13-01:06:39        ">
   <rdf:RDF xmlns:rdf="http://www.w3.org/1999/02/22-rdf-syntax-ns#">
      <rdf:Description rdf:about=""/>
   </rdf:RDF>
</x:xmpmeta>
                                                                                                    
                                                                                                    
                                                                                                    
                                                                                                    
                                                                                                    
                                                                                                    
                                                                                                    
                                                                                                    
                                                                                                    
                                                                                                    
                                                                                                    
                                                                                                    
                                                                                                    
                                                                                                    
                                                                                                    
                                                                                                    
                                                                                                    
                                                                                                    
                                                                                                    
                                                                                                    
                           
<?xpacket end="w"?></metadata>
<defs>
    <style>
      .cls-1 {
        fill: #68b0c9;
        fill-rule: evenodd;
      }
    </style>
  </defs>
  <path id="стрелка" class="cls-1" d="M1353.5,4164a4.5,4.5,0,1,1-4.5,4.5A4.494,4.494,0,0,1,1353.5,4164Zm0,2a2.5,2.5,0,1,1-2.5,2.5A2.5,2.5,0,0,1,1353.5,4166Zm3.5,1h7v2h-7v-2Zm10.16-.46,6.94,0.93-0.26,1.99-6.94-.93Zm11.42,2.29,6.55,2.47-0.71,1.87-6.55-2.47Zm9.45,4.49,5.98,3.65-1.04,1.71-5.98-3.65Zm8.75,5.47,4.88,5.02-1.44,1.4-4.88-5.02Zm6.6,7.75,3.9,5.81-1.66,1.11-3.9-5.81Zm6.27,10.82,1.65,6.81-1.95.47-1.65-6.81Zm4.02,11.19-0.34,6.99-2-.09,0.34-7Zm-0.51,11.21-1.36,6.87-1.96-.39,1.36-6.87Zm-3.27,11.49-2.96,6.34-1.82-.84,2.96-6.34Zm-5.51,9.52-4.15,5.64-1.61-1.18,4.15-5.64Zm-7.59,9.68-5.27,4.61-1.31-1.51,5.27-4.61Zm-10.68,7.1-6.44,2.74-0.78-1.84,6.44-2.74Zm-11.01,4-6.95.88-0.25-1.98,6.95-.88Zm-11.11,1.44-13-.04,0.02-1.94,13,0.04Zm-1.64-6.3-11.39,6.27-0.92-1.71,11.39-6.27Zm-0.92,12.24-11.42-6.21,0.94-1.69,11.42,6.2Z" transform="translate(-1349 -4164)"/>
</svg>
