<svg 
    xmlns="http://www.w3.org/2000/svg"
    xmlns:xlink="http://www.w3.org/1999/xlink"
    width="199px" height="52px">
    <path fill-rule="evenodd"  fill="rgb(104, 176, 201)"
    d="M194.000,52.000 C191.239,52.000 189.000,49.775 189.000,47.031 C189.000,46.171 189.220,45.362 189.607,44.657 L185.332,40.258 L186.774,38.880 L190.907,43.132 C191.758,42.464 192.831,42.062 194.000,42.062 C196.761,42.062 199.000,44.287 199.000,47.031 C199.000,49.775 196.761,52.000 194.000,52.000 ZM194.000,44.062 C192.343,44.062 191.000,45.391 191.000,47.031 C191.000,48.671 192.343,50.000 194.000,50.000 C195.657,50.000 197.000,48.671 197.000,47.031 C197.000,45.391 195.657,44.062 194.000,44.062 ZM177.299,32.352 L178.725,30.958 L183.648,35.904 L182.223,37.299 L177.299,32.352 ZM168.150,24.675 L169.455,23.168 L174.772,27.697 L173.467,29.203 L168.150,24.675 ZM156.938,18.253 L157.991,16.564 L163.953,20.218 L162.900,21.907 L156.938,18.253 ZM144.819,11.784 L145.631,9.969 L152.038,12.788 L151.226,14.603 L144.819,11.784 ZM131.768,7.472 L132.237,5.542 L139.052,7.171 L138.583,9.101 L131.768,7.472 ZM117.778,3.836 L118.065,1.871 L125.002,2.865 L124.716,4.830 L117.778,3.836 ZM101.777,1.989 L101.986,0.014 L108.958,0.740 L108.749,2.715 L101.777,1.989 ZM88.790,0.584 L95.787,0.163 L95.908,2.145 L88.911,2.566 L88.790,0.584 ZM73.694,3.065 L80.566,1.690 L80.962,3.636 L74.090,5.011 L73.694,3.065 ZM60.675,6.055 L67.542,4.658 L67.944,6.603 L61.078,8.000 L60.675,6.055 ZM48.648,9.372 L55.353,7.344 L55.937,9.243 L49.232,11.271 L48.648,9.372 ZM35.644,15.592 L42.182,13.085 L42.904,14.937 L36.366,17.444 L35.644,15.592 ZM23.728,23.118 L29.772,19.598 L30.787,21.310 L24.742,24.830 L23.728,23.118 ZM13.912,30.631 L19.290,26.174 L20.575,27.697 L15.196,32.154 L13.912,30.631 ZM1.964,47.615 L0.012,47.170 L0.272,46.050 L0.047,45.830 L0.429,45.372 L2.480,36.527 L4.432,36.972 L3.273,41.968 L9.983,33.938 L11.407,35.334 L3.693,44.567 L12.530,43.265 L12.824,45.229 L2.152,46.801 L1.964,47.615 Z"/>
</svg>