<svg 
    xmlns="http://www.w3.org/2000/svg"
    xmlns:xlink="http://www.w3.org/1999/xlink"
    width="199px" height="53px">
    <path fill-rule="evenodd"  fill="rgb(104, 176, 201)"
    d="M198.707,48.135 L196.758,48.584 L196.569,47.763 L185.913,46.180 L186.207,44.202 L195.031,45.513 L187.328,36.214 L188.750,34.807 L195.450,42.896 L194.293,37.863 L196.242,37.415 L198.291,46.325 L198.672,46.785 L198.447,47.007 L198.707,48.135 ZM178.173,28.522 L179.456,26.987 L184.827,31.477 L183.544,33.011 L178.173,28.522 ZM167.976,22.089 L168.989,20.365 L175.024,23.910 L174.011,25.634 L167.976,22.089 ZM155.875,15.670 L156.596,13.804 L163.125,16.329 L162.404,18.195 L155.875,15.670 ZM142.861,9.934 L143.444,8.021 L150.139,10.064 L149.556,11.977 L142.861,9.934 ZM130.870,7.275 L131.273,5.316 L138.130,6.724 L137.727,8.683 L130.870,7.275 ZM117.871,4.287 L118.267,2.327 L125.129,3.712 L124.733,5.672 L117.871,4.287 ZM102.946,2.786 L103.067,0.790 L110.054,1.213 L109.933,3.209 L102.946,2.786 ZM89.915,1.371 L96.876,0.639 L97.085,2.628 L90.124,3.360 L89.915,1.371 ZM73.893,3.510 L80.821,2.509 L81.107,4.489 L74.179,5.489 L73.893,3.510 ZM59.863,7.848 L66.668,6.207 L67.137,8.151 L60.332,9.792 L59.863,7.848 ZM46.895,13.505 L53.294,10.666 L54.105,12.494 L47.706,15.333 L46.895,13.505 ZM34.997,20.989 L40.951,17.309 L42.003,19.010 L36.049,22.690 L34.997,20.989 ZM24.193,28.521 L29.503,23.960 L30.807,25.478 L25.496,30.038 L24.193,28.521 ZM15.330,36.788 L20.247,31.806 L21.670,33.211 L16.753,38.193 L15.330,36.788 ZM10.000,48.000 C10.000,50.761 7.761,53.000 5.000,53.000 C2.238,53.000 -0.000,50.761 -0.000,48.000 C-0.000,45.239 2.238,43.000 5.000,43.000 C6.164,43.000 7.232,43.401 8.082,44.068 L12.208,39.785 L13.648,41.173 L9.385,45.598 C9.777,46.311 10.000,47.129 10.000,48.000 ZM5.000,45.000 C3.343,45.000 2.000,46.343 2.000,48.000 C2.000,49.657 3.343,51.000 5.000,51.000 C6.657,51.000 8.000,49.657 8.000,48.000 C8.000,46.343 6.657,45.000 5.000,45.000 Z"/>
</svg>