<svg 
 xmlns="http://www.w3.org/2000/svg"
 xmlns:xlink="http://www.w3.org/1999/xlink"
 width="155px" height="64px">
<path fill-rule="evenodd"  fill="rgb(104, 176, 201)"
 d="M154.205,38.388 L154.250,38.459 L154.162,38.524 L150.535,50.014 L148.738,49.132 L151.444,40.560 L141.846,47.747 L140.781,46.061 L150.408,38.852 L140.514,38.015 L140.679,36.037 L152.555,37.040 L152.795,36.280 L154.593,37.162 L154.205,38.388 ZM130.103,51.384 L136.362,48.284 L137.262,50.062 L131.002,53.162 L130.103,51.384 ZM118.695,55.251 L125.387,53.216 L125.981,55.116 L119.289,57.151 L118.695,55.251 ZM105.437,58.667 L112.376,57.731 L112.653,59.699 L105.714,60.636 L105.437,58.667 ZM91.444,61.211 L98.435,60.780 L98.567,62.762 L91.576,63.194 L91.444,61.211 ZM79.096,63.005 L79.151,61.020 L86.155,61.239 L86.100,63.224 L79.096,63.005 ZM63.202,60.914 L63.257,58.928 L71.190,60.213 L71.135,62.199 L63.202,60.914 ZM49.372,55.826 L50.272,54.056 L56.530,57.207 L55.629,58.978 L49.372,55.826 ZM37.957,48.371 L39.165,46.791 L44.752,51.008 L43.544,52.588 L37.957,48.371 ZM28.070,38.399 L29.483,36.998 L34.446,41.925 L33.032,43.327 L28.070,38.399 ZM19.261,28.633 L20.877,27.467 L25.011,33.097 L23.395,34.263 L19.261,28.633 ZM12.510,18.604 L14.218,17.575 L17.872,23.522 L16.164,24.551 L12.510,18.604 ZM10.152,14.990 L7.109,9.902 C6.128,10.350 4.996,10.492 3.861,10.224 C1.170,9.588 -0.501,6.910 0.130,4.241 C0.760,1.573 3.453,-0.074 6.144,0.562 C8.836,1.198 10.506,3.876 9.876,6.544 C9.677,7.386 9.272,8.125 8.728,8.723 L11.873,13.981 L10.152,14.990 ZM5.688,2.494 C4.073,2.113 2.457,3.101 2.079,4.702 C1.701,6.303 2.703,7.910 4.318,8.291 C5.933,8.673 7.548,7.685 7.927,6.084 C8.305,4.483 7.302,2.876 5.688,2.494 Z"/>
</svg>