<svg xmlns="http://www.w3.org/2000/svg" width="79.25" height="94" viewBox="0 0 79.25 94">
  <metadata><?xpacket begin="﻿" id="W5M0MpCehiHzreSzNTczkc9d"?>
<x:xmpmeta xmlns:x="adobe:ns:meta/" x:xmptk="Adobe XMP Core 5.6-c142 79.160924, 2017/07/13-01:06:39        ">
   <rdf:RDF xmlns:rdf="http://www.w3.org/1999/02/22-rdf-syntax-ns#">
      <rdf:Description rdf:about=""/>
   </rdf:RDF>
</x:xmpmeta>
                                                                                                    
                                                                                                    
                                                                                                    
                                                                                                    
                                                                                                    
                                                                                                    
                                                                                                    
                                                                                                    
                                                                                                    
                                                                                                    
                                                                                                    
                                                                                                    
                                                                                                    
                                                                                                    
                                                                                                    
                                                                                                    
                                                                                                    
                                                                                                    
                                                                                                    
                                                                                                    
                           
<?xpacket end="w"?></metadata>
<defs>
    <style>
      .cls-1 {
        fill: #ecf2f7;
        fill-rule: evenodd;
        opacity: 0.79;
      }
    </style>
  </defs>
  <path id="иконка" class="cls-1" d="M589,2695h21a7.619,7.619,0,0,1,5,2c2.908,3,4.81,8.78,2,12-2.264,2.59-8,2-8,2v3s6.74-.59,12,2c5.093,2.51,8.949,10.06,12,29a39.012,39.012,0,0,1-2,19s6.617-1.25,8,5c0.85,3.84-.506,11.19-4,15-4.574,4.98-12,5-12,5H573s-5.25-1.5-8-5c-3.433-4.38-5.205-11.15-5-14,0.563-7.85,9-6,9-6s-3.164-9.95-1-20c4.481-20.82,6.044-25.63,12-28a35.874,35.874,0,0,1,11-2v-3s-5.552,1.01-8-3c-1.667-2.73-.061-7.31,2-10A8.734,8.734,0,0,1,589,2695Zm1,3h21s4.428,2.47,4,6-2,4-2,4H588s-3.326-.88-2-5S590,2698,590,2698Zm4,13h12v3H594v-3Zm-15,62v13h-4s-3.6.38-7-4-5.152-10.41-4-13a4.149,4.149,0,0,1,7-1,42.068,42.068,0,0,0,5,5h3Zm43,0v13h4s5.89-1.87,8-7,3.4-11.78-1-12-5.032,2.76-7,4A24.786,24.786,0,0,1,622,2773Zm-40,13h37v-13a13.089,13.089,0,0,0-2-1c-1.332-.53-3-1-3-1v7a2.824,2.824,0,0,1-2,1,0.813,0.813,0,0,1-1-1v-7h-3v7a2.219,2.219,0,0,1-2,1,2.54,2.54,0,0,1-2-1v-7h-2v7a2.725,2.725,0,0,1-2,1,2.125,2.125,0,0,1-2-1v-7h-2v7a2.591,2.591,0,0,1-2,1,2.358,2.358,0,0,1-2-1v-7h-2v7a3.11,3.11,0,0,1-2,1,2.214,2.214,0,0,1-2-1v-6c0-1.25-4-.52-4,0v14Zm40-16s6.5-2.91,7-10,1.756-13.21-1-22-3.511-18.8-10-20-30.05-2.14-35,0c-5.376,2.33-8.232,9.62-10,16-3.507,12.66-1.858,27.04-1,29a14.261,14.261,0,0,0,6,7s15.776-2.14,23-2S622,2770,622,2770Zm-41-5s0.349,2.14,2,2,2-3,2-3-1.247-34.09,3-36,23.432-2.2,25,1,2,35,2,35,0.233,2.17,2,2a2.321,2.321,0,0,0,2-2s-1.273-34.59-3-37-8.6-4.1-16-4-13.123.72-15,3c-3.614,4.38-3.969,28.9-4,33S581,2765,581,2765Z" transform="translate(-560 -2695)"/>
</svg>
